<?xml version="1.0" standalone="no"?>
<svg xmlns="http://www.w3.org/2000/svg" width="500" height="500"><defs><clipPath id="clip-path-dot-color"><path d="M 19 145v 14h 7a 7 7, 0, 0, 0, 0 -14" transform="rotate(-90,26,152)"/><path d="M 19 159v 14h 7a 7 7, 0, 0, 0, 0 -14" transform="rotate(90,26,166)"/><path d="M 19 187v 14h 7a 7 7, 0, 0, 0, 0 -14" transform="rotate(180,26,194)"/><circle cx="26" cy="264" r="7" transform="rotate(0,26,264)"/><circle cx="26" cy="334" r="7" transform="rotate(0,26,334)"/><circle cx="40" cy="138" r="7" transform="rotate(0,40,138)"/><path d="M 33 173v 14h 7a 7 7, 0, 0, 0, 0 -14" transform="rotate(-90,40,180)"/><path d="M 33 187v 14h 14v -7a 7 7, 0, 0, 0, -7 -7" transform="rotate(90,40,194)"/><path d="M 33 229v 14h 7a 7 7, 0, 0, 0, 0 -14" transform="rotate(180,40,236)"/><path d="M 33 271v 14h 7a 7 7, 0, 0, 0, 0 -14" transform="rotate(-90,40,278)"/><rect x="33" y="285" width="14" height="14" transform="rotate(0,40,292)"/><path d="M 33 299v 14h 7a 7 7, 0, 0, 0, 0 -14" transform="rotate(90,40,306)"/><path d="M 33 355v 14h 7a 7 7, 0, 0, 0, 0 -14" transform="rotate(180,40,362)"/><path d="M 47 145v 14h 7a 7 7, 0, 0, 0, 0 -14" transform="rotate(180,54,152)"/><path d="M 47 201v 14h 7a 7 7, 0, 0, 0, 0 -14" transform="rotate(-90,54,208)"/><rect x="47" y="215" width="14" height="14" transform="rotate(0,54,222)"/><rect x="47" y="229" width="14" height="14" transform="rotate(0,54,236)"/><path d="M 47 243v 14h 14v -7a 7 7, 0, 0, 0, -7 -7" transform="rotate(180,54,250)"/><rect x="47" y="285" width="14" height="14" transform="rotate(0,54,292)"/><path d="M 47 313v 14h 14v -7a 7 7, 0, 0, 0, -7 -7" transform="rotate(-90,54,320)"/><rect x="47" y="327" width="14" height="14" transform="rotate(0,54,334)"/><rect x="47" y="341" width="14" height="14" transform="rotate(0,54,348)"/><rect x="47" y="355" width="14" height="14" transform="rotate(0,54,362)"/><path d="M 61 131v 14h 14v -7a 7 7, 0, 0, 0, -7 -7" transform="rotate(-90,68,138)"/><rect x="61" y="145" width="14" height="14" transform="rotate(0,68,152)"/><path d="M 61 159v 14h 7a 7 7, 0, 0, 0, 0 -14" transform="rotate(90,68,166)"/><circle cx="68" cy="194" r="7" transform="rotate(0,68,194)"/><rect x="61" y="215" width="14" height="14" transform="rotate(0,68,222)"/><rect x="61" y="229" width="14" height="14" transform="rotate(0,68,236)"/><path d="M 61 243v 14h 14v -7a 7 7, 0, 0, 0, -7 -7" transform="rotate(90,68,250)"/><path d="M 61 271v 14h 7a 7 7, 0, 0, 0, 0 -14" transform="rotate(-90,68,278)"/><rect x="61" y="285" width="14" height="14" transform="rotate(0,68,292)"/><rect x="61" y="299" width="14" height="14" transform="rotate(0,68,306)"/><path d="M 61 313v 14h 14v -7a 7 7, 0, 0, 0, -7 -7" transform="rotate(90,68,320)"/><path d="M 61 341v 14h 14v -7a 7 7, 0, 0, 0, -7 -7" transform="rotate(0,68,348)"/><path d="M 61 355v 14h 14v -7a 7 7, 0, 0, 0, -7 -7" transform="rotate(90,68,362)"/><path d="M 75 131v 14h 7a 7 7, 0, 0, 0, 0 -14" transform="rotate(0,82,138)"/><path d="M 75 173v 14h 7a 7 7, 0, 0, 0, 0 -14" transform="rotate(180,82,180)"/><path d="M 75 201v 14h 14v -7a 7 7, 0, 0, 0, -7 -7" transform="rotate(-90,82,208)"/><rect x="75" y="215" width="14" height="14" transform="rotate(0,82,222)"/><path d="M 75 257v 14h 7a 7 7, 0, 0, 0, 0 -14" transform="rotate(180,82,264)"/><circle cx="82" cy="334" r="7" transform="rotate(0,82,334)"/><path d="M 89 173v 14h 7a 7 7, 0, 0, 0, 0 -14" transform="rotate(0,96,180)"/><path d="M 89 201v 14h 14v -7a 7 7, 0, 0, 0, -7 -7" transform="rotate(0,96,208)"/><rect x="89" y="215" width="14" height="14" transform="rotate(0,96,222)"/><rect x="89" y="229" width="14" height="14" transform="rotate(0,96,236)"/><rect x="89" y="243" width="14" height="14" transform="rotate(0,96,250)"/><path d="M 89 257v 14h 14v -7a 7 7, 0, 0, 0, -7 -7" transform="rotate(90,96,264)"/><circle cx="96" cy="292" r="7" transform="rotate(0,96,292)"/><path d="M 89 341v 14h 7a 7 7, 0, 0, 0, 0 -14" transform="rotate(-90,96,348)"/><path d="M 89 355v 14h 14v -7a 7 7, 0, 0, 0, -7 -7" transform="rotate(180,96,362)"/><path d="M 103 131v 14h 7a 7 7, 0, 0, 0, 0 -14" transform="rotate(180,110,138)"/><path d="M 103 159v 14h 7a 7 7, 0, 0, 0, 0 -14" transform="rotate(180,110,166)"/><circle cx="110" cy="194" r="7" transform="rotate(0,110,194)"/><rect x="103" y="215" width="14" height="14" transform="rotate(0,110,222)"/><path d="M 103 243v 14h 7a 7 7, 0, 0, 0, 0 -14" transform="rotate(0,110,250)"/><circle cx="110" cy="278" r="7" transform="rotate(0,110,278)"/><circle cx="110" cy="306" r="7" transform="rotate(0,110,306)"/><circle cx="110" cy="334" r="7" transform="rotate(0,110,334)"/><path d="M 103 355v 14h 7a 7 7, 0, 0, 0, 0 -14" transform="rotate(0,110,362)"/><rect x="117" y="131" width="14" height="14" transform="rotate(0,124,138)"/><rect x="117" y="145" width="14" height="14" transform="rotate(0,124,152)"/><rect x="117" y="159" width="14" height="14" transform="rotate(0,124,166)"/><path d="M 117 173v 14h 14v -7a 7 7, 0, 0, 0, -7 -7" transform="rotate(180,124,180)"/><rect x="117" y="215" width="14" height="14" transform="rotate(0,124,222)"/><circle cx="138" cy="40" r="7" transform="rotate(0,138,40)"/><path d="M 131 61v 14h 14v -7a 7 7, 0, 0, 0, -7 -7" transform="rotate(-90,138,68)"/><rect x="131" y="75" width="14" height="14" transform="rotate(0,138,82)"/><rect x="131" y="89" width="14" height="14" transform="rotate(0,138,96)"/><path d="M 131 103v 14h 7a 7 7, 0, 0, 0, 0 -14" transform="rotate(90,138,110)"/><path d="M 131 131v 14h 14v -7a 7 7, 0, 0, 0, -7 -7" transform="rotate(0,138,138)"/><rect x="131" y="145" width="14" height="14" transform="rotate(0,138,152)"/><rect x="131" y="159" width="14" height="14" transform="rotate(0,138,166)"/><path d="M 131 173v 14h 14v -7a 7 7, 0, 0, 0, -7 -7" transform="rotate(90,138,180)"/><path d="M 131 201v 14h 14v -7a 7 7, 0, 0, 0, -7 -7" transform="rotate(-90,138,208)"/><rect x="131" y="215" width="14" height="14" transform="rotate(0,138,222)"/><path d="M 131 229v 14h 7a 7 7, 0, 0, 0, 0 -14" transform="rotate(90,138,236)"/><path d="M 131 257v 14h 7a 7 7, 0, 0, 0, 0 -14" transform="rotate(180,138,264)"/><path d="M 131 369v 14h 7a 7 7, 0, 0, 0, 0 -14" transform="rotate(-90,138,376)"/><path d="M 131 383v 14h 7a 7 7, 0, 0, 0, 0 -14" transform="rotate(90,138,390)"/><path d="M 131 411v 14h 14v -7a 7 7, 0, 0, 0, -7 -7" transform="rotate(-90,138,418)"/><path d="M 131 425v 14h 14v -7a 7 7, 0, 0, 0, -7 -7" transform="rotate(180,138,432)"/><circle cx="138" cy="460" r="7" transform="rotate(0,138,460)"/><rect x="145" y="61" width="14" height="14" transform="rotate(0,152,68)"/><rect x="145" y="75" width="14" height="14" transform="rotate(0,152,82)"/><rect x="145" y="89" width="14" height="14" transform="rotate(0,152,96)"/><path d="M 145 117v 14h 7a 7 7, 0, 0, 0, 0 -14" transform="rotate(180,152,124)"/><path d="M 145 145v 14h 7a 7 7, 0, 0, 0, 0 -14" transform="rotate(0,152,152)"/><path d="M 145 201v 14h 7a 7 7, 0, 0, 0, 0 -14" transform="rotate(0,152,208)"/><path d="M 145 257v 14h 14v -7a 7 7, 0, 0, 0, -7 -7" transform="rotate(0,152,264)"/><rect x="145" y="271" width="14" height="14" transform="rotate(0,152,278)"/><path d="M 145 285v 14h 7a 7 7, 0, 0, 0, 0 -14" transform="rotate(90,152,292)"/><path d="M 145 327v 14h 14v -7a 7 7, 0, 0, 0, -7 -7" transform="rotate(-90,152,334)"/><path d="M 145 341v 14h 14v -7a 7 7, 0, 0, 0, -7 -7" transform="rotate(180,152,348)"/><rect x="145" y="411" width="14" height="14" transform="rotate(0,152,418)"/><rect x="145" y="425" width="14" height="14" transform="rotate(0,152,432)"/><path d="M 145 439v 14h 14v -7a 7 7, 0, 0, 0, -7 -7" transform="rotate(180,152,446)"/><path d="M 159 33v 14h 14v -7a 7 7, 0, 0, 0, -7 -7" transform="rotate(-90,166,40)"/><rect x="159" y="47" width="14" height="14" transform="rotate(0,166,54)"/><rect x="159" y="61" width="14" height="14" transform="rotate(0,166,68)"/><path d="M 159 89v 14h 14v -7a 7 7, 0, 0, 0, -7 -7" transform="rotate(0,166,96)"/><rect x="159" y="103" width="14" height="14" transform="rotate(0,166,110)"/><path d="M 159 117v 14h 14v -7a 7 7, 0, 0, 0, -7 -7" transform="rotate(90,166,124)"/><path d="M 159 159v 14h 7a 7 7, 0, 0, 0, 0 -14" transform="rotate(-90,166,166)"/><path d="M 159 173v 14h 14v -7a 7 7, 0, 0, 0, -7 -7" transform="rotate(180,166,180)"/><path d="M 159 215v 14h 7a 7 7, 0, 0, 0, 0 -14" transform="rotate(-90,166,222)"/><rect x="159" y="229" width="14" height="14" transform="rotate(0,166,236)"/><path d="M 159 243v 14h 7a 7 7, 0, 0, 0, 0 -14" transform="rotate(90,166,250)"/><path d="M 159 299v 14h 14v -7a 7 7, 0, 0, 0, -7 -7" transform="rotate(-90,166,306)"/><rect x="159" y="313" width="14" height="14" transform="rotate(0,166,320)"/><rect x="159" y="327" width="14" height="14" transform="rotate(0,166,334)"/><rect x="159" y="341" width="14" height="14" transform="rotate(0,166,348)"/><path d="M 159 411v 14h 14v -7a 7 7, 0, 0, 0, -7 -7" transform="rotate(0,166,418)"/><rect x="159" y="425" width="14" height="14" transform="rotate(0,166,432)"/><rect x="159" y="439" width="14" height="14" transform="rotate(0,166,446)"/><rect x="159" y="453" width="14" height="14" transform="rotate(0,166,460)"/><path d="M 159 467v 14h 7a 7 7, 0, 0, 0, 0 -14" transform="rotate(90,166,474)"/><path d="M 173 33v 14h 7a 7 7, 0, 0, 0, 0 -14" transform="rotate(0,180,40)"/><rect x="173" y="61" width="14" height="14" transform="rotate(0,180,68)"/><path d="M 173 145v 14h 7a 7 7, 0, 0, 0, 0 -14" transform="rotate(180,180,152)"/><path d="M 173 173v 14h 14v -7a 7 7, 0, 0, 0, -7 -7" transform="rotate(0,180,180)"/><path d="M 173 187v 14h 7a 7 7, 0, 0, 0, 0 -14" transform="rotate(90,180,194)"/><path d="M 173 229v 14h 7a 7 7, 0, 0, 0, 0 -14" transform="rotate(0,180,236)"/><circle cx="180" cy="278" r="7" transform="rotate(0,180,278)"/><rect x="173" y="299" width="14" height="14" transform="rotate(0,180,306)"/><path d="M 173 341v 14h 14v -7a 7 7, 0, 0, 0, -7 -7" transform="rotate(0,180,348)"/><rect x="173" y="355" width="14" height="14" transform="rotate(0,180,362)"/><path d="M 173 369v 14h 7a 7 7, 0, 0, 0, 0 -14" transform="rotate(90,180,376)"/><path d="M 173 397v 14h 7a 7 7, 0, 0, 0, 0 -14" transform="rotate(180,180,404)"/><path d="M 173 439v 14h 14v -7a 7 7, 0, 0, 0, -7 -7" transform="rotate(0,180,446)"/><rect x="173" y="453" width="14" height="14" transform="rotate(0,180,460)"/><path d="M 187 47v 14h 7a 7 7, 0, 0, 0, 0 -14" transform="rotate(-90,194,54)"/><path d="M 187 61v 14h 14v -7a 7 7, 0, 0, 0, -7 -7" transform="rotate(90,194,68)"/><path d="M 187 89v 14h 14v -7a 7 7, 0, 0, 0, -7 -7" transform="rotate(-90,194,96)"/><path d="M 187 103v 14h 7a 7 7, 0, 0, 0, 0 -14" transform="rotate(90,194,110)"/><path d="M 187 131v 14h 14v -7a 7 7, 0, 0, 0, -7 -7" transform="rotate(-90,194,138)"/><rect x="187" y="145" width="14" height="14" transform="rotate(0,194,152)"/><path d="M 187 159v 14h 14v -7a 7 7, 0, 0, 0, -7 -7" transform="rotate(180,194,166)"/><circle cx="194" cy="222" r="7" transform="rotate(0,194,222)"/><path d="M 187 243v 14h 14v -7a 7 7, 0, 0, 0, -7 -7" transform="rotate(-90,194,250)"/><path d="M 187 257v 14h 14v -7a 7 7, 0, 0, 0, -7 -7" transform="rotate(180,194,264)"/><path d="M 187 285v 14h 14v -7a 7 7, 0, 0, 0, -7 -7" transform="rotate(-90,194,292)"/><rect x="187" y="299" width="14" height="14" transform="rotate(0,194,306)"/><path d="M 187 383v 14h 7a 7 7, 0, 0, 0, 0 -14" transform="rotate(-90,194,390)"/><rect x="187" y="397" width="14" height="14" transform="rotate(0,194,404)"/><path d="M 187 453v 14h 7a 7 7, 0, 0, 0, 0 -14" transform="rotate(0,194,460)"/><path d="M 201 75v 14h 7a 7 7, 0, 0, 0, 0 -14" transform="rotate(-90,208,82)"/><path d="M 201 89v 14h 14v -7a 7 7, 0, 0, 0, -7 -7" transform="rotate(90,208,96)"/><path d="M 201 117v 14h 14v -7a 7 7, 0, 0, 0, -7 -7" transform="rotate(-90,208,124)"/><rect x="201" y="131" width="14" height="14" transform="rotate(0,208,138)"/><rect x="201" y="159" width="14" height="14" transform="rotate(0,208,166)"/><rect x="201" y="173" width="14" height="14" transform="rotate(0,208,180)"/><path d="M 201 187v 14h 14v -7a 7 7, 0, 0, 0, -7 -7" transform="rotate(180,208,194)"/><path d="M 201 229v 14h 14v -7a 7 7, 0, 0, 0, -7 -7" transform="rotate(-90,208,236)"/><rect x="201" y="243" width="14" height="14" transform="rotate(0,208,250)"/><rect x="201" y="257" width="14" height="14" transform="rotate(0,208,264)"/><rect x="201" y="271" width="14" height="14" transform="rotate(0,208,278)"/><rect x="201" y="285" width="14" height="14" transform="rotate(0,208,292)"/><rect x="201" y="299" width="14" height="14" transform="rotate(0,208,306)"/><path d="M 201 313v 14h 14v -7a 7 7, 0, 0, 0, -7 -7" transform="rotate(180,208,320)"/><circle cx="208" cy="348" r="7" transform="rotate(0,208,348)"/><path d="M 201 397v 14h 7a 7 7, 0, 0, 0, 0 -14" transform="rotate(0,208,404)"/><path d="M 201 425v 14h 7a 7 7, 0, 0, 0, 0 -14" transform="rotate(180,208,432)"/><path d="M 215 33v 14h 14v -7a 7 7, 0, 0, 0, -7 -7" transform="rotate(-90,222,40)"/><path d="M 215 47v 14h 7a 7 7, 0, 0, 0, 0 -14" transform="rotate(90,222,54)"/><path d="M 215 103v 14h 7a 7 7, 0, 0, 0, 0 -14" transform="rotate(-90,222,110)"/><rect x="215" y="117" width="14" height="14" transform="rotate(0,222,124)"/><rect x="215" y="131" width="14" height="14" transform="rotate(0,222,138)"/><rect x="215" y="145" width="14" height="14" transform="rotate(0,222,152)"/><rect x="215" y="159" width="14" height="14" transform="rotate(0,222,166)"/><path d="M 215 187v 14h 7a 7 7, 0, 0, 0, 0 -14" transform="rotate(0,222,194)"/><rect x="215" y="229" width="14" height="14" transform="rotate(0,222,236)"/><path d="M 215 243v 14h 14v -7a 7 7, 0, 0, 0, -7 -7" transform="rotate(90,222,250)"/><rect x="215" y="285" width="14" height="14" transform="rotate(0,222,292)"/><rect x="215" y="299" width="14" height="14" transform="rotate(0,222,306)"/><path d="M 215 313v 14h 14v -7a 7 7, 0, 0, 0, -7 -7" transform="rotate(90,222,320)"/><circle cx="222" cy="390" r="7" transform="rotate(0,222,390)"/><path d="M 215 411v 14h 14v -7a 7 7, 0, 0, 0, -7 -7" transform="rotate(-90,222,418)"/><path d="M 215 425v 14h 14v -7a 7 7, 0, 0, 0, -7 -7" transform="rotate(90,222,432)"/><path d="M 229 19v 14h 7a 7 7, 0, 0, 0, 0 -14" transform="rotate(-90,236,26)"/><rect x="229" y="33" width="14" height="14" transform="rotate(0,236,40)"/><path d="M 229 89v 14h 7a 7 7, 0, 0, 0, 0 -14" transform="rotate(180,236,96)"/><rect x="229" y="117" width="14" height="14" transform="rotate(0,236,124)"/><rect x="229" y="131" width="14" height="14" transform="rotate(0,236,138)"/><rect x="229" y="159" width="14" height="14" transform="rotate(0,236,166)"/><path d="M 229 215v 14h 14v -7a 7 7, 0, 0, 0, -7 -7" transform="rotate(-90,236,222)"/><rect x="229" y="229" width="14" height="14" transform="rotate(0,236,236)"/><rect x="229" y="285" width="14" height="14" transform="rotate(0,236,292)"/><path d="M 229 355v 14h 14v -7a 7 7, 0, 0, 0, -7 -7" transform="rotate(-90,236,362)"/><path d="M 229 369v 14h 14v -7a 7 7, 0, 0, 0, -7 -7" transform="rotate(180,236,376)"/><path d="M 229 397v 14h 14v -7a 7 7, 0, 0, 0, -7 -7" transform="rotate(-90,236,404)"/><rect x="229" y="411" width="14" height="14" transform="rotate(0,236,418)"/><circle cx="236" cy="446" r="7" transform="rotate(0,236,446)"/><circle cx="236" cy="474" r="7" transform="rotate(0,236,474)"/><path d="M 243 33v 14h 7a 7 7, 0, 0, 0, 0 -14" transform="rotate(0,250,40)"/><path d="M 243 61v 14h 14v -7a 7 7, 0, 0, 0, -7 -7" transform="rotate(-90,250,68)"/><rect x="243" y="75" width="14" height="14" transform="rotate(0,250,82)"/><rect x="243" y="89" width="14" height="14" transform="rotate(0,250,96)"/><rect x="243" y="103" width="14" height="14" transform="rotate(0,250,110)"/><rect x="243" y="117" width="14" height="14" transform="rotate(0,250,124)"/><path d="M 243 131v 14h 14v -7a 7 7, 0, 0, 0, -7 -7" transform="rotate(90,250,138)"/><path d="M 243 159v 14h 7a 7 7, 0, 0, 0, 0 -14" transform="rotate(0,250,166)"/><path d="M 243 187v 14h 7a 7 7, 0, 0, 0, 0 -14" transform="rotate(-90,250,194)"/><rect x="243" y="201" width="14" height="14" transform="rotate(0,250,208)"/><rect x="243" y="215" width="14" height="14" transform="rotate(0,250,222)"/><rect x="243" y="229" width="14" height="14" transform="rotate(0,250,236)"/><path d="M 243 257v 14h 7a 7 7, 0, 0, 0, 0 -14" transform="rotate(180,250,264)"/><rect x="243" y="285" width="14" height="14" transform="rotate(0,250,292)"/><circle cx="250" cy="334" r="7" transform="rotate(0,250,334)"/><path d="M 243 355v 14h 14v -7a 7 7, 0, 0, 0, -7 -7" transform="rotate(0,250,362)"/><rect x="243" y="369" width="14" height="14" transform="rotate(0,250,376)"/><rect x="243" y="383" width="14" height="14" transform="rotate(0,250,390)"/><rect x="243" y="397" width="14" height="14" transform="rotate(0,250,404)"/><rect x="243" y="411" width="14" height="14" transform="rotate(0,250,418)"/><path d="M 243 425v 14h 7a 7 7, 0, 0, 0, 0 -14" transform="rotate(90,250,432)"/><rect x="257" y="61" width="14" height="14" transform="rotate(0,264,68)"/><rect x="257" y="75" width="14" height="14" transform="rotate(0,264,82)"/><path d="M 257 201v 14h 7a 7 7, 0, 0, 0, 0 -14" transform="rotate(0,264,208)"/><path d="M 257 229v 14h 7a 7 7, 0, 0, 0, 0 -14" transform="rotate(0,264,236)"/><path d="M 257 257v 14h 7a 7 7, 0, 0, 0, 0 -14" transform="rotate(0,264,264)"/><rect x="257" y="285" width="14" height="14" transform="rotate(0,264,292)"/><path d="M 257 299v 14h 7a 7 7, 0, 0, 0, 0 -14" transform="rotate(90,264,306)"/><path d="M 257 383v 14h 7a 7 7, 0, 0, 0, 0 -14" transform="rotate(0,264,390)"/><path d="M 257 411v 14h 7a 7 7, 0, 0, 0, 0 -14" transform="rotate(0,264,418)"/><path d="M 257 439v 14h 7a 7 7, 0, 0, 0, 0 -14" transform="rotate(180,264,446)"/><path d="M 257 467v 14h 7a 7 7, 0, 0, 0, 0 -14" transform="rotate(180,264,474)"/><circle cx="278" cy="26" r="7" transform="rotate(0,278,26)"/><rect x="271" y="61" width="14" height="14" transform="rotate(0,278,68)"/><rect x="271" y="75" width="14" height="14" transform="rotate(0,278,82)"/><circle cx="278" cy="110" r="7" transform="rotate(0,278,110)"/><circle cx="278" cy="152" r="7" transform="rotate(0,278,152)"/><circle cx="278" cy="194" r="7" transform="rotate(0,278,194)"/><circle cx="278" cy="222" r="7" transform="rotate(0,278,222)"/><rect x="271" y="285" width="14" height="14" transform="rotate(0,278,292)"/><path d="M 271 327v 14h 7a 7 7, 0, 0, 0, 0 -14" transform="rotate(-90,278,334)"/><path d="M 271 341v 14h 7a 7 7, 0, 0, 0, 0 -14" transform="rotate(90,278,348)"/><path d="M 271 369v 14h 7a 7 7, 0, 0, 0, 0 -14" transform="rotate(180,278,376)"/><circle cx="278" cy="404" r="7" transform="rotate(0,278,404)"/><path d="M 271 425v 14h 14v -7a 7 7, 0, 0, 0, -7 -7" transform="rotate(-90,278,432)"/><rect x="271" y="439" width="14" height="14" transform="rotate(0,278,446)"/><path d="M 271 467v 14h 7a 7 7, 0, 0, 0, 0 -14" transform="rotate(0,278,474)"/><path d="M 285 47v 14h 7a 7 7, 0, 0, 0, 0 -14" transform="rotate(-90,292,54)"/><rect x="285" y="61" width="14" height="14" transform="rotate(0,292,68)"/><rect x="285" y="75" width="14" height="14" transform="rotate(0,292,82)"/><path d="M 285 89v 14h 14v -7a 7 7, 0, 0, 0, -7 -7" transform="rotate(180,292,96)"/><path d="M 285 117v 14h 7a 7 7, 0, 0, 0, 0 -14" transform="rotate(180,292,124)"/><path d="M 285 173v 14h 7a 7 7, 0, 0, 0, 0 -14" transform="rotate(180,292,180)"/><circle cx="292" cy="208" r="7" transform="rotate(0,292,208)"/><path d="M 285 243v 14h 14v -7a 7 7, 0, 0, 0, -7 -7" transform="rotate(-90,292,250)"/><rect x="285" y="257" width="14" height="14" transform="rotate(0,292,264)"/><rect x="285" y="271" width="14" height="14" transform="rotate(0,292,278)"/><rect x="285" y="285" width="14" height="14" transform="rotate(0,292,292)"/><path d="M 285 299v 14h 7a 7 7, 0, 0, 0, 0 -14" transform="rotate(90,292,306)"/><rect x="285" y="369" width="14" height="14" transform="rotate(0,292,376)"/><path d="M 285 411v 14h 7a 7 7, 0, 0, 0, 0 -14" transform="rotate(-90,292,418)"/><rect x="285" y="425" width="14" height="14" transform="rotate(0,292,432)"/><rect x="285" y="439" width="14" height="14" transform="rotate(0,292,446)"/><path d="M 285 453v 14h 7a 7 7, 0, 0, 0, 0 -14" transform="rotate(90,292,460)"/><rect x="299" y="61" width="14" height="14" transform="rotate(0,306,68)"/><path d="M 299 89v 14h 14v -7a 7 7, 0, 0, 0, -7 -7" transform="rotate(0,306,96)"/><rect x="299" y="103" width="14" height="14" transform="rotate(0,306,110)"/><path d="M 299 117v 14h 14v -7a 7 7, 0, 0, 0, -7 -7" transform="rotate(90,306,124)"/><path d="M 299 145v 14h 7a 7 7, 0, 0, 0, 0 -14" transform="rotate(180,306,152)"/><rect x="299" y="173" width="14" height="14" transform="rotate(0,306,180)"/><circle cx="306" cy="222" r="7" transform="rotate(0,306,222)"/><path d="M 299 243v 14h 7a 7 7, 0, 0, 0, 0 -14" transform="rotate(0,306,250)"/><path d="M 299 271v 14h 7a 7 7, 0, 0, 0, 0 -14" transform="rotate(0,306,278)"/><path d="M 299 327v 14h 7a 7 7, 0, 0, 0, 0 -14" transform="rotate(180,306,334)"/><path d="M 299 355v 14h 7a 7 7, 0, 0, 0, 0 -14" transform="rotate(-90,306,362)"/><path d="M 299 369v 14h 14v -7a 7 7, 0, 0, 0, -7 -7" transform="rotate(90,306,376)"/><path d="M 299 397v 14h 7a 7 7, 0, 0, 0, 0 -14" transform="rotate(180,306,404)"/><rect x="299" y="425" width="14" height="14" transform="rotate(0,306,432)"/><circle cx="306" cy="474" r="7" transform="rotate(0,306,474)"/><path d="M 313 19v 14h 7a 7 7, 0, 0, 0, 0 -14" transform="rotate(180,320,26)"/><path d="M 313 47v 14h 14v -7a 7 7, 0, 0, 0, -7 -7" transform="rotate(-90,320,54)"/><path d="M 313 61v 14h 14v -7a 7 7, 0, 0, 0, -7 -7" transform="rotate(90,320,68)"/><path d="M 313 131v 14h 7a 7 7, 0, 0, 0, 0 -14" transform="rotate(-90,320,138)"/><rect x="313" y="145" width="14" height="14" transform="rotate(0,320,152)"/><rect x="313" y="159" width="14" height="14" transform="rotate(0,320,166)"/><rect x="313" y="173" width="14" height="14" transform="rotate(0,320,180)"/><path d="M 313 187v 14h 14v -7a 7 7, 0, 0, 0, -7 -7" transform="rotate(180,320,194)"/><circle cx="320" cy="264" r="7" transform="rotate(0,320,264)"/><path d="M 313 285v 14h 7a 7 7, 0, 0, 0, 0 -14" transform="rotate(-90,320,292)"/><path d="M 313 299v 14h 7a 7 7, 0, 0, 0, 0 -14" transform="rotate(90,320,306)"/><rect x="313" y="327" width="14" height="14" transform="rotate(0,320,334)"/><path d="M 313 341v 14h 14v -7a 7 7, 0, 0, 0, -7 -7" transform="rotate(180,320,348)"/><path d="M 313 397v 14h 14v -7a 7 7, 0, 0, 0, -7 -7" transform="rotate(0,320,404)"/><rect x="313" y="411" width="14" height="14" transform="rotate(0,320,418)"/><path d="M 313 425v 14h 14v -7a 7 7, 0, 0, 0, -7 -7" transform="rotate(90,320,432)"/><rect x="327" y="19" width="14" height="14" transform="rotate(0,334,26)"/><path d="M 327 47v 14h 7a 7 7, 0, 0, 0, 0 -14" transform="rotate(0,334,54)"/><circle cx="334" cy="82" r="7" transform="rotate(0,334,82)"/><circle cx="334" cy="110" r="7" transform="rotate(0,334,110)"/><rect x="327" y="145" width="14" height="14" transform="rotate(0,334,152)"/><path d="M 327 173v 14h 14v -7a 7 7, 0, 0, 0, -7 -7" transform="rotate(0,334,180)"/><path d="M 327 187v 14h 14v -7a 7 7, 0, 0, 0, -7 -7" transform="rotate(90,334,194)"/><circle cx="334" cy="236" r="7" transform="rotate(0,334,236)"/><circle cx="334" cy="278" r="7" transform="rotate(0,334,278)"/><path d="M 327 313v 14h 7a 7 7, 0, 0, 0, 0 -14" transform="rotate(-90,334,320)"/><rect x="327" y="327" width="14" height="14" transform="rotate(0,334,334)"/><path d="M 327 341v 14h 14v -7a 7 7, 0, 0, 0, -7 -7" transform="rotate(90,334,348)"/><circle cx="334" cy="376" r="7" transform="rotate(0,334,376)"/><path d="M 327 411v 14h 7a 7 7, 0, 0, 0, 0 -14" transform="rotate(0,334,418)"/><path d="M 327 453v 14h 14v -7a 7 7, 0, 0, 0, -7 -7" transform="rotate(-90,334,460)"/><path d="M 327 467v 14h 14v -7a 7 7, 0, 0, 0, -7 -7" transform="rotate(180,334,474)"/><rect x="341" y="19" width="14" height="14" transform="rotate(0,348,26)"/><circle cx="348" cy="68" r="7" transform="rotate(0,348,68)"/><path d="M 341 145v 14h 7a 7 7, 0, 0, 0, 0 -14" transform="rotate(0,348,152)"/><path d="M 341 285v 14h 7a 7 7, 0, 0, 0, 0 -14" transform="rotate(-90,348,292)"/><path d="M 341 299v 14h 14v -7a 7 7, 0, 0, 0, -7 -7" transform="rotate(180,348,306)"/><rect x="341" y="327" width="14" height="14" transform="rotate(0,348,334)"/><path d="M 341 397v 14h 7a 7 7, 0, 0, 0, 0 -14" transform="rotate(180,348,404)"/><path d="M 341 439v 14h 7a 7 7, 0, 0, 0, 0 -14" transform="rotate(-90,348,446)"/><rect x="341" y="453" width="14" height="14" transform="rotate(0,348,460)"/><path d="M 341 467v 14h 14v -7a 7 7, 0, 0, 0, -7 -7" transform="rotate(90,348,474)"/><path d="M 355 19v 14h 14v -7a 7 7, 0, 0, 0, -7 -7" transform="rotate(0,362,26)"/><rect x="355" y="33" width="14" height="14" transform="rotate(0,362,40)"/><path d="M 355 47v 14h 7a 7 7, 0, 0, 0, 0 -14" transform="rotate(90,362,54)"/><circle cx="362" cy="110" r="7" transform="rotate(0,362,110)"/><path d="M 355 131v 14h 7a 7 7, 0, 0, 0, 0 -14" transform="rotate(180,362,138)"/><path d="M 355 201v 14h 7a 7 7, 0, 0, 0, 0 -14" transform="rotate(-90,362,208)"/><path d="M 355 215v 14h 14v -7a 7 7, 0, 0, 0, -7 -7" transform="rotate(180,362,222)"/><path d="M 355 299v 14h 7a 7 7, 0, 0, 0, 0 -14" transform="rotate(0,362,306)"/><path d="M 355 327v 14h 14v -7a 7 7, 0, 0, 0, -7 -7" transform="rotate(0,362,334)"/><rect x="355" y="341" width="14" height="14" transform="rotate(0,362,348)"/><rect x="355" y="355" width="14" height="14" transform="rotate(0,362,362)"/><rect x="355" y="369" width="14" height="14" transform="rotate(0,362,376)"/><rect x="355" y="383" width="14" height="14" transform="rotate(0,362,390)"/><rect x="355" y="397" width="14" height="14" transform="rotate(0,362,404)"/><rect x="355" y="411" width="14" height="14" transform="rotate(0,362,418)"/><path d="M 355 425v 14h 7a 7 7, 0, 0, 0, 0 -14" transform="rotate(90,362,432)"/><rect x="355" y="453" width="14" height="14" transform="rotate(0,362,460)"/><path d="M 369 131v 14h 14v -7a 7 7, 0, 0, 0, -7 -7" transform="rotate(0,376,138)"/><rect x="369" y="145" width="14" height="14" transform="rotate(0,376,152)"/><rect x="369" y="159" width="14" height="14" transform="rotate(0,376,166)"/><rect x="369" y="173" width="14" height="14" transform="rotate(0,376,180)"/><path d="M 369 187v 14h 14v -7a 7 7, 0, 0, 0, -7 -7" transform="rotate(180,376,194)"/><path d="M 369 215v 14h 14v -7a 7 7, 0, 0, 0, -7 -7" transform="rotate(0,376,222)"/><rect x="369" y="229" width="14" height="14" transform="rotate(0,376,236)"/><rect x="369" y="243" width="14" height="14" transform="rotate(0,376,250)"/><path d="M 369 257v 14h 14v -7a 7 7, 0, 0, 0, -7 -7" transform="rotate(180,376,264)"/><circle cx="376" cy="320" r="7" transform="rotate(0,376,320)"/><rect x="369" y="355" width="14" height="14" transform="rotate(0,376,362)"/><rect x="369" y="411" width="14" height="14" transform="rotate(0,376,418)"/><path d="M 369 439v 14h 14v -7a 7 7, 0, 0, 0, -7 -7" transform="rotate(-90,376,446)"/><rect x="369" y="453" width="14" height="14" transform="rotate(0,376,460)"/><rect x="383" y="173" width="14" height="14" transform="rotate(0,390,180)"/><rect x="383" y="187" width="14" height="14" transform="rotate(0,390,194)"/><path d="M 383 201v 14h 14v -7a 7 7, 0, 0, 0, -7 -7" transform="rotate(180,390,208)"/><rect x="383" y="229" width="14" height="14" transform="rotate(0,390,236)"/><rect x="383" y="243" width="14" height="14" transform="rotate(0,390,250)"/><rect x="383" y="257" width="14" height="14" transform="rotate(0,390,264)"/><rect x="383" y="271" width="14" height="14" transform="rotate(0,390,278)"/><rect x="383" y="285" width="14" height="14" transform="rotate(0,390,292)"/><path d="M 383 299v 14h 7a 7 7, 0, 0, 0, 0 -14" transform="rotate(90,390,306)"/><path d="M 383 341v 14h 14v -7a 7 7, 0, 0, 0, -7 -7" transform="rotate(-90,390,348)"/><rect x="383" y="355" width="14" height="14" transform="rotate(0,390,362)"/><circle cx="390" cy="390" r="7" transform="rotate(0,390,390)"/><rect x="383" y="411" width="14" height="14" transform="rotate(0,390,418)"/><rect x="383" y="439" width="14" height="14" transform="rotate(0,390,446)"/><path d="M 383 453v 14h 14v -7a 7 7, 0, 0, 0, -7 -7" transform="rotate(90,390,460)"/><path d="M 397 131v 14h 7a 7 7, 0, 0, 0, 0 -14" transform="rotate(180,404,138)"/><path d="M 397 159v 14h 7a 7 7, 0, 0, 0, 0 -14" transform="rotate(-90,404,166)"/><path d="M 397 173v 14h 14v -7a 7 7, 0, 0, 0, -7 -7" transform="rotate(90,404,180)"/><rect x="397" y="201" width="14" height="14" transform="rotate(0,404,208)"/><path d="M 397 229v 14h 14v -7a 7 7, 0, 0, 0, -7 -7" transform="rotate(0,404,236)"/><rect x="397" y="243" width="14" height="14" transform="rotate(0,404,250)"/><rect x="397" y="257" width="14" height="14" transform="rotate(0,404,264)"/><path d="M 397 285v 14h 7a 7 7, 0, 0, 0, 0 -14" transform="rotate(0,404,292)"/><path d="M 397 327v 14h 14v -7a 7 7, 0, 0, 0, -7 -7" transform="rotate(-90,404,334)"/><rect x="397" y="341" width="14" height="14" transform="rotate(0,404,348)"/><rect x="397" y="355" width="14" height="14" transform="rotate(0,404,362)"/><rect x="397" y="411" width="14" height="14" transform="rotate(0,404,418)"/><rect x="397" y="425" width="14" height="14" transform="rotate(0,404,432)"/><path d="M 397 439v 14h 14v -7a 7 7, 0, 0, 0, -7 -7" transform="rotate(90,404,446)"/><rect x="411" y="131" width="14" height="14" transform="rotate(0,418,138)"/><path d="M 411 187v 14h 14v -7a 7 7, 0, 0, 0, -7 -7" transform="rotate(-90,418,194)"/><path d="M 411 201v 14h 14v -7a 7 7, 0, 0, 0, -7 -7" transform="rotate(90,418,208)"/><path d="M 411 257v 14h 7a 7 7, 0, 0, 0, 0 -14" transform="rotate(0,418,264)"/><path d="M 411 299v 14h 7a 7 7, 0, 0, 0, 0 -14" transform="rotate(180,418,306)"/><rect x="411" y="327" width="14" height="14" transform="rotate(0,418,334)"/><rect x="411" y="341" width="14" height="14" transform="rotate(0,418,348)"/><rect x="411" y="355" width="14" height="14" transform="rotate(0,418,362)"/><rect x="411" y="369" width="14" height="14" transform="rotate(0,418,376)"/><rect x="411" y="383" width="14" height="14" transform="rotate(0,418,390)"/><rect x="411" y="397" width="14" height="14" transform="rotate(0,418,404)"/><path d="M 411 411v 14h 14v -7a 7 7, 0, 0, 0, -7 -7" transform="rotate(90,418,418)"/><path d="M 411 467v 14h 7a 7 7, 0, 0, 0, 0 -14" transform="rotate(180,418,474)"/><path d="M 425 131v 14h 7a 7 7, 0, 0, 0, 0 -14" transform="rotate(0,432,138)"/><circle cx="432" cy="166" r="7" transform="rotate(0,432,166)"/><path d="M 425 187v 14h 7a 7 7, 0, 0, 0, 0 -14" transform="rotate(0,432,194)"/><path d="M 425 229v 14h 7a 7 7, 0, 0, 0, 0 -14" transform="rotate(-90,432,236)"/><path d="M 425 243v 14h 7a 7 7, 0, 0, 0, 0 -14" transform="rotate(90,432,250)"/><path d="M 425 271v 14h 14v -7a 7 7, 0, 0, 0, -7 -7" transform="rotate(-90,432,278)"/><rect x="425" y="285" width="14" height="14" transform="rotate(0,432,292)"/><rect x="425" y="299" width="14" height="14" transform="rotate(0,432,306)"/><rect x="425" y="313" width="14" height="14" transform="rotate(0,432,320)"/><path d="M 425 327v 14h 14v -7a 7 7, 0, 0, 0, -7 -7" transform="rotate(90,432,334)"/><rect x="425" y="369" width="14" height="14" transform="rotate(0,432,376)"/><rect x="425" y="397" width="14" height="14" transform="rotate(0,432,404)"/><rect x="425" y="467" width="14" height="14" transform="rotate(0,432,474)"/><path d="M 439 145v 14h 7a 7 7, 0, 0, 0, 0 -14" transform="rotate(180,446,152)"/><circle cx="446" cy="208" r="7" transform="rotate(0,446,208)"/><path d="M 439 271v 14h 14v -7a 7 7, 0, 0, 0, -7 -7" transform="rotate(0,446,278)"/><rect x="439" y="285" width="14" height="14" transform="rotate(0,446,292)"/><path d="M 439 369v 14h 7a 7 7, 0, 0, 0, 0 -14" transform="rotate(0,446,376)"/><rect x="439" y="397" width="14" height="14" transform="rotate(0,446,404)"/><rect x="439" y="411" width="14" height="14" transform="rotate(0,446,418)"/><rect x="439" y="425" width="14" height="14" transform="rotate(0,446,432)"/><rect x="439" y="439" width="14" height="14" transform="rotate(0,446,446)"/><rect x="439" y="453" width="14" height="14" transform="rotate(0,446,460)"/><rect x="439" y="467" width="14" height="14" transform="rotate(0,446,474)"/><path d="M 453 131v 14h 7a 7 7, 0, 0, 0, 0 -14" transform="rotate(-90,460,138)"/><rect x="453" y="145" width="14" height="14" transform="rotate(0,460,152)"/><path d="M 453 159v 14h 14v -7a 7 7, 0, 0, 0, -7 -7" transform="rotate(180,460,166)"/><path d="M 453 285v 14h 14v -7a 7 7, 0, 0, 0, -7 -7" transform="rotate(0,460,292)"/><path d="M 453 299v 14h 7a 7 7, 0, 0, 0, 0 -14" transform="rotate(90,460,306)"/><rect x="453" y="397" width="14" height="14" transform="rotate(0,460,404)"/><rect x="453" y="411" width="14" height="14" transform="rotate(0,460,418)"/><rect x="453" y="425" width="14" height="14" transform="rotate(0,460,432)"/><rect x="453" y="439" width="14" height="14" transform="rotate(0,460,446)"/><rect x="453" y="453" width="14" height="14" transform="rotate(0,460,460)"/><path d="M 453 467v 14h 14v -7a 7 7, 0, 0, 0, -7 -7" transform="rotate(90,460,474)"/><path d="M 467 145v 14h 14v -7a 7 7, 0, 0, 0, -7 -7" transform="rotate(0,474,152)"/><rect x="467" y="159" width="14" height="14" transform="rotate(0,474,166)"/><path d="M 467 173v 14h 7a 7 7, 0, 0, 0, 0 -14" transform="rotate(90,474,180)"/><circle cx="474" cy="208" r="7" transform="rotate(0,474,208)"/><path d="M 467 229v 14h 7a 7 7, 0, 0, 0, 0 -14" transform="rotate(-90,474,236)"/><rect x="467" y="243" width="14" height="14" transform="rotate(0,474,250)"/><path d="M 467 257v 14h 7a 7 7, 0, 0, 0, 0 -14" transform="rotate(90,474,264)"/><path d="M 467 341v 14h 7a 7 7, 0, 0, 0, 0 -14" transform="rotate(-90,474,348)"/><rect x="467" y="355" width="14" height="14" transform="rotate(0,474,362)"/><rect x="467" y="369" width="14" height="14" transform="rotate(0,474,376)"/><rect x="467" y="383" width="14" height="14" transform="rotate(0,474,390)"/><rect x="467" y="397" width="14" height="14" transform="rotate(0,474,404)"/><path d="M 467 411v 14h 14v -7a 7 7, 0, 0, 0, -7 -7" transform="rotate(90,474,418)"/></clipPath><clipPath id="clip-path-corners-square-color-0-0"><path clip-rule="evenodd" d="M 19 54v 28a 35 35, 0, 0, 0, 35 35h 28a 35 35, 0, 0, 0, 35 -35v -28a 35 35, 0, 0, 0, -35 -35h -28a 35 35, 0, 0, 0, -35 35M 54 33h 28a 21 21, 0, 0, 1, 21 21v 28a 21 21, 0, 0, 1, -21 21h -28a 21 21, 0, 0, 1, -21 -21v -28a 21 21, 0, 0, 1, 21 -21" transform="rotate(0,68,68)"/></clipPath><clipPath id="clip-path-corners-dot-color-0-0"><circle cx="68" cy="68" r="21" transform="rotate(0,68,68)"/></clipPath><clipPath id="clip-path-corners-square-color-1-0"><path clip-rule="evenodd" d="M 383 54v 28a 35 35, 0, 0, 0, 35 35h 28a 35 35, 0, 0, 0, 35 -35v -28a 35 35, 0, 0, 0, -35 -35h -28a 35 35, 0, 0, 0, -35 35M 418 33h 28a 21 21, 0, 0, 1, 21 21v 28a 21 21, 0, 0, 1, -21 21h -28a 21 21, 0, 0, 1, -21 -21v -28a 21 21, 0, 0, 1, 21 -21" transform="rotate(90,432,68)"/></clipPath><clipPath id="clip-path-corners-dot-color-1-0"><circle cx="432" cy="68" r="21" transform="rotate(90,432,68)"/></clipPath><clipPath id="clip-path-corners-square-color-0-1"><path clip-rule="evenodd" d="M 19 418v 28a 35 35, 0, 0, 0, 35 35h 28a 35 35, 0, 0, 0, 35 -35v -28a 35 35, 0, 0, 0, -35 -35h -28a 35 35, 0, 0, 0, -35 35M 54 397h 28a 21 21, 0, 0, 1, 21 21v 28a 21 21, 0, 0, 1, -21 21h -28a 21 21, 0, 0, 1, -21 -21v -28a 21 21, 0, 0, 1, 21 -21" transform="rotate(-90,68,432)"/></clipPath><clipPath id="clip-path-corners-dot-color-0-1"><circle cx="68" cy="432" r="21" transform="rotate(-90,68,432)"/></clipPath></defs><rect x="0" y="0" height="500" width="500" clip-path="url('#clip-path-background-color')" fill="#fff"/><rect x="0" y="0" height="500" width="500" clip-path="url('#clip-path-dot-color')" fill="#000000"/><rect x="19" y="19" height="98" width="98" clip-path="url('#clip-path-corners-square-color-0-0')" fill="#000000"/><rect x="47" y="47" height="42" width="42" clip-path="url('#clip-path-corners-dot-color-0-0')" fill="#000000"/><rect x="383" y="19" height="98" width="98" clip-path="url('#clip-path-corners-square-color-1-0')" fill="#000000"/><rect x="411" y="47" height="42" width="42" clip-path="url('#clip-path-corners-dot-color-1-0')" fill="#000000"/><rect x="19" y="383" height="98" width="98" clip-path="url('#clip-path-corners-square-color-0-1')" fill="#000000"/><rect x="47" y="411" height="42" width="42" clip-path="url('#clip-path-corners-dot-color-0-1')" fill="#000000"/></svg>